<svg xmlns="http://www.w3.org/2000/svg" version="1.1" xmlns:xlink="http://www.w3.org/1999/xlink" xmlns:svgjs="http://svgjs.com/svgjs" width="1000" height="1000"><rect width="1000" height="1000" rx="200" ry="200" fill="#000000"></rect><g transform="matrix(4.444444444444445,0,0,4.444444444444445,99.99998686048718,233.3333201938205)"><svg xmlns="http://www.w3.org/2000/svg" version="1.1" xmlns:xlink="http://www.w3.org/1999/xlink" xmlns:svgjs="http://svgjs.com/svgjs" width="180" height="120"><svg width="180" height="120" viewBox="0 0 180 120" fill="none" xmlns="http://www.w3.org/2000/svg">
<path d="M80.1451 81.9355H67.9516L64.5374 71.693H41.8574L38.4432 81.9355H26.3309L46.2471 25.0323H60.1477L80.1451 81.9355ZM53.238 37.9575L45.4342 61.2065H61.0419L53.238 37.9575ZM93.8995 41.2904V48.2814C94.8207 45.7343 96.3924 43.8104 98.6143 42.5097C100.836 41.1549 103.383 40.4775 106.256 40.4775V52.1833C103.058 51.7497 100.186 52.4001 97.6388 54.1343C95.1459 55.8143 93.8995 58.6052 93.8995 62.5072V81.9355H83.413V41.2904H93.8995ZM134.979 41.2904V51.3704H125.794V68.2788C125.794 69.6878 126.146 70.7175 126.85 71.3678C127.555 72.0181 128.585 72.3975 129.939 72.5059C131.294 72.5601 132.974 72.533 134.979 72.4246V81.9355C127.88 82.7485 122.813 82.0981 119.778 79.9846C116.797 77.8168 115.307 73.9149 115.307 68.2788V51.3704H108.235V41.2904H115.307V33.0801L125.794 29.9097V41.2904H134.979ZM216.776" fill="#fff"></path>
<circle cx="60" cy="60" r="59.0323" stroke="#fff" stroke-width="1.93548"></circle>
<circle cx="120" cy="60" r="59.0323" stroke="#fff" stroke-width="1.93548"></circle>
</svg></svg></g></svg>